<svg width="191" height="166" viewBox="0 0 191 166" fill="none" xmlns="http://www.w3.org/2000/svg">
<path d="M178.364 82.8876C178.364 129.894 142.142 165.775 95.1518 165.775C43 165.775 16 135.5 12.9998 82.8876C9.31278 50.2752 36.021 0 96.212 0C152.709 2.3348 178.364 35.8814 178.364 82.8876Z" fill="black"/>
<path d="M191 84.4719C191 100.952 181.11 110 171.169 110C161.227 110 155 95.6774 155 84.4719C155 73.2662 163.059 60 173 60C182.941 60 191 73.2662 191 84.4719Z" fill="black"/>
<path d="M36.021 93.02C36.021 104.942 27.957 114.607 18.011 114.607C8.06399 114.607 0 104.942 0 93.02C0 81.0982 8.06399 71.4336 18.011 71.4336C27.957 71.4336 36.021 81.0982 36.021 93.02Z" fill="black"/>
<path d="M161.654 87.5C161.654 126.436 130.229 158 91.463 158C52.697 158 21.272 126.436 21.272 87.5C21.272 48.5639 52.697 17 91.463 17C130.229 17 161.654 48.5639 161.654 87.5Z" fill="#864A06"/>
<path d="M176 92.0979C176 101.973 169.348 109.978 161.142 109.978C152.936 109.978 146.284 101.973 146.284 92.0979C146.284 82.2226 152.936 74.2173 161.142 74.2173C169.348 74.2173 176 82.2226 176 92.0979Z" fill="#864A06"/>
<path d="M39.716 92.0979C39.716 101.973 33.064 109.978 24.858 109.978C16.652 109.978 10 101.973 10 92.0979C10 82.2226 16.652 74.2173 24.858 74.2173C33.064 74.2173 39.716 82.2226 39.716 92.0979Z" fill="#864A06"/>
<path d="M167 79C167 117.108 136.332 148 98.5 148C60.668 148 30 117.108 30 79C30 40.8924 60.668 10 98.5 10C136.332 10 167 40.8924 167 79Z" fill="url(#paint0_linear_115_20)"/>
<path d="M181 83.5C181 93.165 174.508 101 166.5 101C158.492 101 152 93.165 152 83.5C152 73.835 158.492 66 166.5 66C174.508 66 181 73.835 181 83.5Z" fill="url(#paint1_linear_115_20)"/>
<path d="M48 83.5C48 93.165 41.508 101 33.5 101C25.492 101 19 93.165 19 83.5C19 73.835 25.492 66 33.5 66C41.508 66 48 73.835 48 83.5Z" fill="url(#paint2_linear_115_20)"/>
<path d="M103 68C103 82.3594 91.583 94 77.5 94C63.417 94 52 82.3594 52 68C52 53.6406 63.417 42 77.5 42C91.583 42 103 53.6406 103 68Z" fill="white"/>
<path d="M147 66C147 80.3594 135.583 92 121.5 92C107.417 92 96 80.3594 96 66C96 51.6406 107.417 40 121.5 40C135.583 40 147 51.6406 147 66Z" fill="white"/>
<path d="M147 104.5C147 119.136 125.734 131 99.5 131C73.266 131 52 119.136 52 104.5C52 89.864 73.266 78 99.5 78C125.734 78 147 89.864 147 104.5Z" fill="white"/>
<path d="M82 72C82 75.866 78.866 79 75 79C71.134 79 68 75.866 68 72C68 68.134 71.134 65 75 65C78.866 65 82 68.134 82 72Z" fill="#9F5704"/>
<path d="M80 70.5C80 71.3284 79.328 72 78.5 72C77.672 72 77 71.3284 77 70.5C77 69.6716 77.672 69 78.5 69C79.328 69 80 69.6716 80 70.5Z" fill="white"/>
<path d="M128 72C128 75.866 124.866 79 121 79C117.134 79 114 75.866 114 72C114 68.134 117.134 65 121 65C124.866 65 128 68.134 128 72Z" fill="#9F5704"/>
<path d="M126 70.5C126 71.3284 125.328 72 124.5 72C123.672 72 123 71.3284 123 70.5C123 69.6716 123.672 69 124.5 69C125.328 69 126 69.6716 126 70.5Z" fill="white"/>
<path d="M88 86C88 86 93.883 88.785 96.5 91.5C99.117 94.215 99.5 101.5 99.5 101.5C99.5 101.5 100.162 94.628 102.5 91.5C104.838 88.372 111 86 111 86" stroke="#9F5704" stroke-width="5"/>
<defs>
<linearGradient id="paint0_linear_115_20" x1="100" y1="10" x2="100" y2="148" gradientUnits="userSpaceOnUse">
<stop stop-color="#DA790A"/>
<stop offset="1" stop-color="#9F5704"/>
</linearGradient>
<linearGradient id="paint1_linear_115_20" x1="100" y1="10" x2="100" y2="148" gradientUnits="userSpaceOnUse">
<stop stop-color="#DA790A"/>
<stop offset="1" stop-color="#9F5704"/>
</linearGradient>
<linearGradient id="paint2_linear_115_20" x1="100" y1="10" x2="100" y2="148" gradientUnits="userSpaceOnUse">
<stop stop-color="#DA790A"/>
<stop offset="1" stop-color="#9F5704"/>
</linearGradient>
</defs>
</svg>
